<mxfile host="65bd71144e">
    <diagram id="5jWS66OkcI7lht1l4ZPY" name="第 1 页">
        <mxGraphModel dx="819" dy="719" grid="1" gridSize="10" guides="1" tooltips="1" connect="1" arrows="1" fold="1" page="1" pageScale="1" pageWidth="1169" pageHeight="827" math="0" shadow="0">
            <root>
                <mxCell id="0"/>
                <mxCell id="1" parent="0"/>
                <mxCell id="103" value="" style="rounded=0;whiteSpace=wrap;html=1;fontFamily=Times New Roman;fontSize=24;" parent="1" vertex="1">
                    <mxGeometry width="1160" height="820" as="geometry"/>
                </mxCell>
                <mxCell id="100" style="edgeStyle=none;rounded=0;sketch=0;html=1;exitX=0.75;exitY=1;exitDx=0;exitDy=0;strokeColor=default;fontFamily=Times New Roman;fontSize=24;endArrow=none;endFill=0;" parent="1" source="2" target="94" edge="1">
                    <mxGeometry relative="1" as="geometry">
                        <mxPoint x="675" y="409.02" as="sourcePoint"/>
                    </mxGeometry>
                </mxCell>
                <mxCell id="2" value="&lt;font face=&quot;Times New Roman&quot; style=&quot;font-size: 24px;&quot;&gt;Customer&lt;/font&gt;" style="rounded=0;whiteSpace=wrap;html=1;" parent="1" vertex="1">
                    <mxGeometry x="470" y="234" width="120" height="60" as="geometry"/>
                </mxCell>
                <mxCell id="12" value="&lt;font style=&quot;font-size: 24px;&quot;&gt;Individual&lt;/font&gt;" style="rounded=0;whiteSpace=wrap;html=1;fontFamily=Times New Roman;" parent="1" vertex="1">
                    <mxGeometry x="105" y="303" width="120" height="60" as="geometry"/>
                </mxCell>
                <mxCell id="13" value="&lt;span style=&quot;font-size: 24px;&quot;&gt;Company&lt;/span&gt;" style="rounded=0;whiteSpace=wrap;html=1;fontFamily=Times New Roman;" parent="1" vertex="1">
                    <mxGeometry x="105" y="183" width="120" height="60" as="geometry"/>
                </mxCell>
                <mxCell id="14" value="ISA" style="triangle;whiteSpace=wrap;html=1;fontSize=24;rotation=0;horizontal=1;verticalAlign=middle;" parent="1" vertex="1">
                    <mxGeometry x="275" y="223" width="60" height="80" as="geometry"/>
                </mxCell>
                <mxCell id="19" value="" style="endArrow=none;html=1;rounded=0;sketch=0;strokeColor=default;fontFamily=Times New Roman;fontSize=24;entryX=0;entryY=0.25;entryDx=0;entryDy=0;exitX=1;exitY=0.5;exitDx=0;exitDy=0;" parent="1" source="13" target="14" edge="1">
                    <mxGeometry width="50" height="50" relative="1" as="geometry">
                        <mxPoint x="510" y="373" as="sourcePoint"/>
                        <mxPoint x="560" y="323" as="targetPoint"/>
                    </mxGeometry>
                </mxCell>
                <mxCell id="20" value="" style="endArrow=none;html=1;rounded=0;sketch=0;strokeColor=default;fontFamily=Times New Roman;fontSize=24;entryX=0;entryY=0.5;entryDx=0;entryDy=0;exitX=1;exitY=0.5;exitDx=0;exitDy=0;" parent="1" source="14" target="2" edge="1">
                    <mxGeometry width="50" height="50" relative="1" as="geometry">
                        <mxPoint x="415" y="227" as="sourcePoint"/>
                        <mxPoint x="710" y="187" as="targetPoint"/>
                    </mxGeometry>
                </mxCell>
                <mxCell id="21" value="" style="endArrow=none;html=1;rounded=0;sketch=0;strokeColor=default;fontFamily=Times New Roman;fontSize=24;entryX=0;entryY=0.75;entryDx=0;entryDy=0;exitX=1;exitY=0.5;exitDx=0;exitDy=0;" parent="1" source="12" target="14" edge="1">
                    <mxGeometry width="50" height="50" relative="1" as="geometry">
                        <mxPoint x="145" y="263" as="sourcePoint"/>
                        <mxPoint x="740" y="273" as="targetPoint"/>
                    </mxGeometry>
                </mxCell>
                <mxCell id="22" value="&lt;u&gt;Cid&lt;/u&gt;" style="ellipse;whiteSpace=wrap;html=1;fontFamily=Times New Roman;fontSize=24;" parent="1" vertex="1">
                    <mxGeometry x="575" y="154" width="70" height="40" as="geometry"/>
                </mxCell>
                <mxCell id="23" value="Cname" style="ellipse;whiteSpace=wrap;html=1;fontFamily=Times New Roman;fontSize=24;" parent="1" vertex="1">
                    <mxGeometry x="485" y="154" width="70" height="40" as="geometry"/>
                </mxCell>
                <mxCell id="25" value="" style="endArrow=none;html=1;rounded=0;sketch=0;strokeColor=default;fontFamily=Times New Roman;fontSize=24;exitX=0.5;exitY=1;exitDx=0;exitDy=0;" parent="1" source="23" target="2" edge="1">
                    <mxGeometry width="50" height="50" relative="1" as="geometry">
                        <mxPoint x="595" y="167" as="sourcePoint"/>
                        <mxPoint x="645" y="117" as="targetPoint"/>
                    </mxGeometry>
                </mxCell>
                <mxCell id="26" value="" style="endArrow=none;html=1;rounded=0;sketch=0;strokeColor=default;fontFamily=Times New Roman;fontSize=24;entryX=0.75;entryY=0;entryDx=0;entryDy=0;exitX=0.5;exitY=1;exitDx=0;exitDy=0;" parent="1" source="22" target="2" edge="1">
                    <mxGeometry width="50" height="50" relative="1" as="geometry">
                        <mxPoint x="604.9999999999998" y="177" as="sourcePoint"/>
                        <mxPoint x="664.9999999999998" y="162" as="targetPoint"/>
                    </mxGeometry>
                </mxCell>
                <mxCell id="29" value="" style="endArrow=none;html=1;rounded=0;sketch=0;strokeColor=default;fontFamily=Times New Roman;fontSize=24;exitX=0.5;exitY=0;exitDx=0;exitDy=0;" parent="1" source="34" edge="1">
                    <mxGeometry width="50" height="50" relative="1" as="geometry">
                        <mxPoint x="55" y="383" as="sourcePoint"/>
                        <mxPoint x="105" y="333" as="targetPoint"/>
                    </mxGeometry>
                </mxCell>
                <mxCell id="34" value="Gender" style="ellipse;whiteSpace=wrap;html=1;fontFamily=Times New Roman;fontSize=24;" parent="1" vertex="1">
                    <mxGeometry x="15" y="393" width="70" height="40" as="geometry"/>
                </mxCell>
                <mxCell id="36" value="Age" style="ellipse;whiteSpace=wrap;html=1;fontFamily=Times New Roman;fontSize=24;" parent="1" vertex="1">
                    <mxGeometry x="125" y="393" width="70" height="40" as="geometry"/>
                </mxCell>
                <mxCell id="37" value="" style="endArrow=none;html=1;rounded=0;sketch=0;strokeColor=default;fontFamily=Times New Roman;fontSize=24;exitX=0.5;exitY=0;exitDx=0;exitDy=0;entryX=0.5;entryY=1;entryDx=0;entryDy=0;" parent="1" source="36" target="12" edge="1">
                    <mxGeometry width="50" height="50" relative="1" as="geometry">
                        <mxPoint x="60.00000000000023" y="403" as="sourcePoint"/>
                        <mxPoint x="114.99999999999977" y="343" as="targetPoint"/>
                    </mxGeometry>
                </mxCell>
                <mxCell id="73" value="" style="edgeStyle=none;rounded=0;sketch=0;html=1;strokeColor=default;fontFamily=Times New Roman;fontSize=24;shape=flexArrow;endArrow=block;endWidth=5.739795918367347;endSize=2.6892857142857145;width=3.928571428571429;entryX=1;entryY=0;entryDx=0;entryDy=0;" parent="1" source="38" target="71" edge="1">
                    <mxGeometry relative="1" as="geometry"/>
                </mxCell>
                <mxCell id="38" value="&lt;font face=&quot;Times New Roman&quot; style=&quot;font-size: 24px;&quot;&gt;Account&lt;/font&gt;" style="rounded=0;whiteSpace=wrap;html=1;" parent="1" vertex="1">
                    <mxGeometry x="855" y="183" width="120" height="60" as="geometry"/>
                </mxCell>
                <mxCell id="40" value="SDate" style="ellipse;whiteSpace=wrap;html=1;fontFamily=Times New Roman;fontSize=24;" parent="1" vertex="1">
                    <mxGeometry x="895" y="113" width="70" height="40" as="geometry"/>
                </mxCell>
                <mxCell id="41" value="OLA&lt;sup&gt;(1)&lt;/sup&gt;" style="ellipse;whiteSpace=wrap;html=1;fontFamily=Times New Roman;fontSize=24;" parent="1" vertex="1">
                    <mxGeometry x="1025" y="123" width="70" height="40" as="geometry"/>
                </mxCell>
                <mxCell id="42" value="(1) Overdraft limit amount&amp;nbsp; &amp;nbsp; &amp;nbsp; &amp;nbsp;&amp;nbsp;&lt;span style=&quot;&quot;&gt;&lt;br&gt;&lt;/span&gt;(2) Loan number&lt;br&gt;(3) Payment number&lt;br&gt;(4) Bramch number" style="text;html=1;strokeColor=none;fillColor=none;align=left;verticalAlign=top;whiteSpace=wrap;rounded=0;fontFamily=Times New Roman;fontSize=24;" parent="1" vertex="1">
                    <mxGeometry x="25" y="589" width="314" height="120" as="geometry"/>
                </mxCell>
                <mxCell id="43" value="" style="endArrow=none;html=1;rounded=0;sketch=0;strokeColor=default;fontFamily=Times New Roman;fontSize=24;entryX=0.5;entryY=1;entryDx=0;entryDy=0;" parent="1" source="38" edge="1">
                    <mxGeometry width="50" height="50" relative="1" as="geometry">
                        <mxPoint x="785" y="243" as="sourcePoint"/>
                        <mxPoint x="910" y="153" as="targetPoint"/>
                    </mxGeometry>
                </mxCell>
                <mxCell id="44" value="" style="endArrow=none;html=1;rounded=0;sketch=0;strokeColor=default;fontFamily=Times New Roman;fontSize=24;entryX=0;entryY=1;entryDx=0;entryDy=0;exitX=0.75;exitY=0;exitDx=0;exitDy=0;" parent="1" source="38" target="41" edge="1">
                    <mxGeometry width="50" height="50" relative="1" as="geometry">
                        <mxPoint x="805" y="463" as="sourcePoint"/>
                        <mxPoint x="1010" y="153" as="targetPoint"/>
                    </mxGeometry>
                </mxCell>
                <mxCell id="101" style="edgeStyle=none;rounded=0;sketch=0;html=1;exitX=0;exitY=0.5;exitDx=0;exitDy=0;entryX=1;entryY=0.5;entryDx=0;entryDy=0;strokeColor=default;fontFamily=Times New Roman;fontSize=24;endArrow=classic;endFill=1;shape=flexArrow;width=5.142857142857143;endSize=2.44;endWidth=3.346938775510204;" parent="1" source="45" target="94" edge="1">
                    <mxGeometry relative="1" as="geometry"/>
                </mxCell>
                <mxCell id="45" value="&lt;font face=&quot;Times New Roman&quot; style=&quot;font-size: 24px;&quot;&gt;Loan&lt;/font&gt;" style="rounded=0;whiteSpace=wrap;html=1;" parent="1" vertex="1">
                    <mxGeometry x="795" y="390" width="120" height="60" as="geometry"/>
                </mxCell>
                <mxCell id="46" value="&lt;u&gt;Lnum&lt;sup&gt;(2)&lt;/sup&gt;&lt;/u&gt;" style="ellipse;whiteSpace=wrap;html=1;fontFamily=Times New Roman;fontSize=24;" parent="1" vertex="1">
                    <mxGeometry x="745" y="310" width="90" height="40" as="geometry"/>
                </mxCell>
                <mxCell id="47" value="Ltype" style="ellipse;whiteSpace=wrap;html=1;fontFamily=Times New Roman;fontSize=24;" parent="1" vertex="1">
                    <mxGeometry x="855" y="310" width="90" height="40" as="geometry"/>
                </mxCell>
                <mxCell id="48" value="" style="endArrow=none;html=1;rounded=0;sketch=0;strokeColor=default;fontFamily=Times New Roman;fontSize=24;entryX=0.5;entryY=1;entryDx=0;entryDy=0;exitX=0.5;exitY=0;exitDx=0;exitDy=0;" parent="1" source="45" target="47" edge="1">
                    <mxGeometry width="50" height="50" relative="1" as="geometry">
                        <mxPoint x="755" y="410" as="sourcePoint"/>
                        <mxPoint x="805" y="360" as="targetPoint"/>
                    </mxGeometry>
                </mxCell>
                <mxCell id="49" value="" style="endArrow=none;html=1;rounded=0;sketch=0;strokeColor=default;fontFamily=Times New Roman;fontSize=24;entryX=0.5;entryY=1;entryDx=0;entryDy=0;exitX=0.25;exitY=0;exitDx=0;exitDy=0;" parent="1" source="45" target="46" edge="1">
                    <mxGeometry width="50" height="50" relative="1" as="geometry">
                        <mxPoint x="775" y="630" as="sourcePoint"/>
                        <mxPoint x="825" y="580" as="targetPoint"/>
                    </mxGeometry>
                </mxCell>
                <mxCell id="50" value="Amount" style="ellipse;whiteSpace=wrap;html=1;fontFamily=Times New Roman;fontSize=24;" parent="1" vertex="1">
                    <mxGeometry x="955" y="310" width="90" height="40" as="geometry"/>
                </mxCell>
                <mxCell id="51" value="" style="endArrow=none;html=1;rounded=0;sketch=0;strokeColor=default;fontFamily=Times New Roman;fontSize=24;entryX=0;entryY=1;entryDx=0;entryDy=0;exitX=0.75;exitY=0;exitDx=0;exitDy=0;" parent="1" source="45" target="50" edge="1">
                    <mxGeometry width="50" height="50" relative="1" as="geometry">
                        <mxPoint x="945" y="380" as="sourcePoint"/>
                        <mxPoint x="909.9999999999998" y="360" as="targetPoint"/>
                    </mxGeometry>
                </mxCell>
                <mxCell id="53" value="&lt;font face=&quot;Times New Roman&quot; style=&quot;font-size: 24px;&quot;&gt;Payment&lt;/font&gt;" style="rounded=0;whiteSpace=wrap;html=1;" parent="1" vertex="1">
                    <mxGeometry x="396.25" y="460" width="120" height="60" as="geometry"/>
                </mxCell>
                <mxCell id="55" value="PDate" style="ellipse;whiteSpace=wrap;html=1;fontFamily=Times New Roman;fontSize=24;" parent="1" vertex="1">
                    <mxGeometry x="318.75" y="559" width="90" height="40" as="geometry"/>
                </mxCell>
                <mxCell id="56" value="" style="endArrow=none;html=1;rounded=0;sketch=0;strokeColor=default;fontFamily=Times New Roman;fontSize=24;exitX=0.25;exitY=1;exitDx=0;exitDy=0;entryX=1;entryY=0;entryDx=0;entryDy=0;" parent="1" source="53" target="55" edge="1">
                    <mxGeometry width="50" height="50" relative="1" as="geometry">
                        <mxPoint x="376.25" y="500" as="sourcePoint"/>
                        <mxPoint x="378.06980515339455" y="565.8578643762692" as="targetPoint"/>
                    </mxGeometry>
                </mxCell>
                <mxCell id="58" value="Amount" style="ellipse;whiteSpace=wrap;html=1;fontFamily=Times New Roman;fontSize=24;" parent="1" vertex="1">
                    <mxGeometry x="413.75" y="569" width="90" height="40" as="geometry"/>
                </mxCell>
                <mxCell id="59" value="" style="endArrow=none;html=1;rounded=0;sketch=0;strokeColor=default;fontFamily=Times New Roman;fontSize=24;exitX=0.5;exitY=1;exitDx=0;exitDy=0;entryX=0.5;entryY=0;entryDx=0;entryDy=0;" parent="1" source="53" target="58" edge="1">
                    <mxGeometry width="50" height="50" relative="1" as="geometry">
                        <mxPoint x="566.25" y="470" as="sourcePoint"/>
                        <mxPoint x="473.25" y="570" as="targetPoint"/>
                    </mxGeometry>
                </mxCell>
                <mxCell id="60" value="&lt;u&gt;Pnum&lt;sup&gt;(3)&lt;/sup&gt;&lt;/u&gt;" style="ellipse;whiteSpace=wrap;html=1;fontFamily=Times New Roman;fontSize=24;" parent="1" vertex="1">
                    <mxGeometry x="501.25" y="551" width="90" height="40" as="geometry"/>
                </mxCell>
                <mxCell id="61" value="" style="endArrow=none;html=1;rounded=0;sketch=0;strokeColor=default;fontFamily=Times New Roman;fontSize=24;exitX=0.75;exitY=1;exitDx=0;exitDy=0;entryX=0.5;entryY=0;entryDx=0;entryDy=0;" parent="1" source="53" target="60" edge="1">
                    <mxGeometry width="50" height="50" relative="1" as="geometry">
                        <mxPoint x="566.25" y="570" as="sourcePoint"/>
                        <mxPoint x="531.25" y="570" as="targetPoint"/>
                    </mxGeometry>
                </mxCell>
                <mxCell id="114" value="" style="edgeStyle=none;html=1;endArrow=none;endFill=0;" edge="1" parent="1" source="63" target="45">
                    <mxGeometry relative="1" as="geometry"/>
                </mxCell>
                <mxCell id="63" value="&lt;u&gt;Bnum&lt;sup&gt;(4)&lt;/sup&gt;&lt;/u&gt;" style="ellipse;whiteSpace=wrap;html=1;fontFamily=Times New Roman;fontSize=24;" parent="1" vertex="1">
                    <mxGeometry x="965" y="390" width="100" height="40" as="geometry"/>
                </mxCell>
                <mxCell id="113" value="" style="edgeStyle=none;html=1;endArrow=none;endFill=0;" edge="1" parent="1" source="64" target="45">
                    <mxGeometry relative="1" as="geometry"/>
                </mxCell>
                <mxCell id="64" value="City" style="ellipse;whiteSpace=wrap;html=1;fontFamily=Times New Roman;fontSize=24;" parent="1" vertex="1">
                    <mxGeometry x="850" y="511" width="90" height="40" as="geometry"/>
                </mxCell>
                <mxCell id="112" style="edgeStyle=none;html=1;exitX=0.5;exitY=1;exitDx=0;exitDy=0;entryX=0.75;entryY=1;entryDx=0;entryDy=0;endArrow=none;endFill=0;" edge="1" parent="1" source="67" target="45">
                    <mxGeometry relative="1" as="geometry"/>
                </mxCell>
                <mxCell id="67" value="Street" style="ellipse;whiteSpace=wrap;html=1;fontFamily=Times New Roman;fontSize=24;" parent="1" vertex="1">
                    <mxGeometry x="980" y="480" width="90" height="40" as="geometry"/>
                </mxCell>
                <mxCell id="74" value="" style="edgeStyle=none;rounded=0;sketch=0;html=1;strokeColor=default;fontFamily=Times New Roman;fontSize=24;endArrow=none;endFill=0;" parent="1" source="71" target="2" edge="1">
                    <mxGeometry relative="1" as="geometry"/>
                </mxCell>
                <mxCell id="71" value="Own" style="rhombus;whiteSpace=wrap;html=1;fontFamily=Times New Roman;fontSize=24;" parent="1" vertex="1">
                    <mxGeometry x="715" y="213" width="80" height="80" as="geometry"/>
                </mxCell>
                <mxCell id="80" style="edgeStyle=none;rounded=0;sketch=0;html=1;exitX=1;exitY=1;exitDx=0;exitDy=0;entryX=0.25;entryY=0;entryDx=0;entryDy=0;strokeColor=default;fontFamily=Times New Roman;fontSize=24;endArrow=none;endFill=0;" parent="1" source="75" target="13" edge="1">
                    <mxGeometry relative="1" as="geometry"/>
                </mxCell>
                <mxCell id="75" value="Street" style="ellipse;whiteSpace=wrap;html=1;fontFamily=Times New Roman;fontSize=24;" parent="1" vertex="1">
                    <mxGeometry x="25" y="123" width="70" height="40" as="geometry"/>
                </mxCell>
                <mxCell id="79" style="edgeStyle=none;rounded=0;sketch=0;html=1;exitX=1;exitY=1;exitDx=0;exitDy=0;entryX=0.5;entryY=0;entryDx=0;entryDy=0;strokeColor=default;fontFamily=Times New Roman;fontSize=24;endArrow=none;endFill=0;" parent="1" source="76" target="13" edge="1">
                    <mxGeometry relative="1" as="geometry"/>
                </mxCell>
                <mxCell id="76" value="City" style="ellipse;whiteSpace=wrap;html=1;fontFamily=Times New Roman;fontSize=24;" parent="1" vertex="1">
                    <mxGeometry x="105" y="123" width="70" height="40" as="geometry"/>
                </mxCell>
                <mxCell id="84" value="" style="edgeStyle=none;rounded=0;sketch=0;html=1;strokeColor=default;fontFamily=Times New Roman;fontSize=24;endArrow=none;endFill=0;exitX=1;exitY=0;exitDx=0;exitDy=0;" parent="1" source="82" target="2" edge="1">
                    <mxGeometry relative="1" as="geometry"/>
                </mxCell>
                <mxCell id="82" value="Paid by" style="rhombus;whiteSpace=wrap;html=1;fontFamily=Times New Roman;fontSize=24;" parent="1" vertex="1">
                    <mxGeometry x="407.5" y="320" width="95" height="95" as="geometry"/>
                </mxCell>
                <mxCell id="83" value="" style="edgeStyle=none;rounded=0;sketch=0;html=1;strokeColor=default;fontFamily=Times New Roman;fontSize=24;shape=flexArrow;endArrow=block;endWidth=5.739795918367347;endSize=2.6892857142857145;width=3.928571428571429;entryX=0.5;entryY=1;entryDx=0;entryDy=0;exitX=0.5;exitY=0;exitDx=0;exitDy=0;" parent="1" source="53" target="82" edge="1">
                    <mxGeometry relative="1" as="geometry">
                        <mxPoint x="690" y="462.0000000000001" as="sourcePoint"/>
                        <mxPoint x="550" y="476.0000000000001" as="targetPoint"/>
                    </mxGeometry>
                </mxCell>
                <mxCell id="94" value="Borrow" style="rhombus;whiteSpace=wrap;html=1;fontFamily=Times New Roman;fontSize=24;" parent="1" vertex="1">
                    <mxGeometry x="645" y="353" width="80" height="80" as="geometry"/>
                </mxCell>
                <mxCell id="109" value="" style="edgeStyle=none;html=1;endArrow=none;endFill=0;" parent="1" source="108" target="38" edge="1">
                    <mxGeometry relative="1" as="geometry"/>
                </mxCell>
                <mxCell id="108" value="&lt;u&gt;Aid&lt;/u&gt;" style="ellipse;whiteSpace=wrap;html=1;fontFamily=Times New Roman;fontSize=24;" parent="1" vertex="1">
                    <mxGeometry x="800" y="114" width="70" height="40" as="geometry"/>
                </mxCell>
                <mxCell id="111" value="" style="edgeStyle=none;html=1;endArrow=none;endFill=0;" parent="1" source="110" target="71" edge="1">
                    <mxGeometry relative="1" as="geometry"/>
                </mxCell>
                <mxCell id="110" value="Pin" style="ellipse;whiteSpace=wrap;html=1;fontFamily=Times New Roman;fontSize=24;" parent="1" vertex="1">
                    <mxGeometry x="715" y="143" width="70" height="40" as="geometry"/>
                </mxCell>
            </root>
        </mxGraphModel>
    </diagram>
</mxfile>